<svg xmlns="http://www.w3.org/2000/svg" viewBox="0 0 24 24" x="0px" y="0px"><title>Iconsset_Lineicons</title><path d="M20.74,9.4l.48-.14c-1-3.47-2.35-5.47-4.24-6.5s-4.28-1-7.73,0S3.8,5.13,2.77,7s-1,4.29,0,7.73S5.13,20.21,7,21.23a6.69,6.69,0,0,0,3.28.77,15.72,15.72,0,0,0,4.46-.78c3.45-1,5.45-2.35,6.48-4.23s1-4.28,0-7.73Zm-.39,7.11c-.89,1.64-2.71,2.8-5.89,3.75s-5.32,1-7,.09-2.8-2.71-3.75-5.89-1-5.32-.09-7S6.36,4.7,9.54,3.74A14.82,14.82,0,0,1,13.72,3a5.71,5.71,0,0,1,2.78.64c1.64.89,2.8,2.71,3.76,5.91h0C21.22,12.72,21.25,14.87,20.35,16.51Z"></path><path d="M17.32,11.57l-2.49.93-1-2.76,2.49-.93a.5.5,0,1,0-.35-.94l-2.49.93-.93-2.49a.5.5,0,0,0-.94.35l.93,2.49-2.76,1L8.81,7.71a.5.5,0,1,0-.94.35l.93,2.49-2.49.93a.5.5,0,0,0,.35.94l2.49-.93,1,2.76-2.49.93a.5.5,0,0,0,.35.94l2.49-.93.93,2.49a.5.5,0,1,0,.94-.35l-.93-2.49,2.76-1,.93,2.49a.5.5,0,1,0,.94-.35l-.93-2.49,2.49-.93a.5.5,0,1,0-.35-.94ZM11.13,13.9l-1-2.76,2.76-1,1,2.76Z"></path></svg>