<svg xmlns="http://www.w3.org/2000/svg" xmlns:xlink="http://www.w3.org/1999/xlink" viewBox="0 0 58 58" version="1.1" x="0px" y="0px"><title>58 -Web- (Outline)</title><desc>Created with Sketch.</desc><g stroke="none" stroke-width="1" fill="none" fill-rule="evenodd" stroke-linecap="round"><g transform="translate(-961.000000, -1003.000000)" stroke="#000000" stroke-width="2"><g transform="translate(962.000000, 1004.000000)"><path d="M28,56 L28,0"></path><path d="M28,0 C27.786,0 27.574,0.011 27.361,0.016 C19.213,6.616 14,16.697 14,28 C14,39.303 19.213,49.384 27.361,55.984 C27.574,55.989 27.786,56 28,56"></path><path d="M7.6983,8.7282 C13.4783,12.6832 20.4673,15.0002 28.0003,15.0002 C35.5323,15.0002 42.5213,12.6832 48.3013,8.7282"></path><path d="M0,28 L56,28"></path><path d="M56,28 C56,43.464 43.464,56 28,56 C12.536,56 0,43.464 0,28 C0,12.536 12.536,0 28,0 C43.464,0 56,12.536 56,28 L56,28 Z"></path><path d="M48.3017,46.2718 C42.5217,42.3168 35.5327,39.9998 27.9997,39.9998 C20.4677,39.9998 13.4787,42.3168 7.6987,46.2718"></path><path d="M28,0 C28.214,0 28.426,0.011 28.639,0.016 C36.787,6.616 42,16.697 42,28 C42,39.303 36.787,49.384 28.639,55.984 C28.426,55.989 28.214,56 28,56"></path></g></g></g></svg>